<svg width="51" height="51" viewBox="0 0 51 51" fill="none" xmlns="http://www.w3.org/2000/svg">
<path d="M12.2143 45.9738C12.5541 46.1506 12.9356 46.2314 13.3179 46.2078C13.7002 46.1841 14.0688 46.0567 14.3842 45.8394L41.6921 26.9339C41.9711 26.7406 42.1992 26.4826 42.3567 26.1818C42.5142 25.8811 42.5964 25.5467 42.5964 25.2073C42.5964 24.8678 42.5142 24.5334 42.3567 24.2327C42.1992 23.9319 41.9711 23.6739 41.6921 23.4806L14.3842 4.57511C14.0691 4.35706 13.7003 4.22937 13.3178 4.20587C12.9353 4.18237 12.5536 4.26396 12.2142 4.44181C11.8747 4.61965 11.5903 4.88698 11.3919 5.21483C11.1935 5.54269 11.0885 5.91858 11.0884 6.30181V44.1127C11.0883 44.4961 11.1932 44.8723 11.3917 45.2003C11.5902 45.5284 11.8746 45.7959 12.2143 45.9738Z" fill="black"/>
</svg>
