<svg width="51" height="51" viewBox="0 0 51 51" fill="none" xmlns="http://www.w3.org/2000/svg">
<path d="M38.7857 45.9738C38.4459 46.1506 38.0644 46.2314 37.6821 46.2078C37.2998 46.1841 36.9312 46.0567 36.6158 45.8394L9.30791 26.9339C9.02887 26.7406 8.80084 26.4826 8.64334 26.1818C8.48585 25.8811 8.40358 25.5467 8.40358 25.2073C8.40358 24.8678 8.48585 24.5334 8.64334 24.2327C8.80084 23.9319 9.02887 23.6739 9.30791 23.4806L36.6158 4.57511C36.9309 4.35706 37.2997 4.22937 37.6822 4.20587C38.0647 4.18237 38.4464 4.26396 38.7858 4.44181C39.1253 4.61965 39.4097 4.88698 39.6081 5.21483C39.8065 5.54269 39.9115 5.91858 39.9116 6.30181V44.1127C39.9117 44.4961 39.8068 44.8723 39.6083 45.2003C39.4098 45.5284 39.1254 45.7959 38.7857 45.9738Z" fill="black"/>
</svg>
